ffprobe version n2.6.1 Copyright (c) 2007-2015 the FFmpeg developers
  built with gcc 4.8 (Ubuntu 4.8.2-19ubuntu1)
  configuration: --prefix=/opt/ffmpeg --extra-cflags=-I/opt/ffmpeg/include --extra-ldflags=-L/opt/ffmpeg/lib --extra-libs=-ldl --enable-gpl --enable-libass --enable-libfdk-aac --enable-libfreetype --enable-libmp3lame --enable-libtheora --enable-libvorbis --enable-libvpx --enable-libx264 --enable-libx265 --enable-nonfree
  libavutil      54. 20.100 / 54. 20.100
  libavcodec     56. 26.100 / 56. 26.100
  libavformat    56. 25.101 / 56. 25.101
  libavdevice    56.  4.100 / 56.  4.100
  libavfilter     5. 11.102 /  5. 11.102
  libswscale      3.  1.101 /  3.  1.101
  libswresample   1.  1.100 /  1.  1.100
  libpostproc    53.  3.100 / 53.  3.100
Input #0, mxf, from 'PANORAMA 20 VOD.mxf':
  Metadata:
    uid             : b913ce8a-1071-11e5-8c98-00090ffe0001
    generation_uid  : b913ce8b-1071-11e5-9383-00090ffe0001
    company_name    : Adobe Systems Incorporated
    product_name    : Adobe Media Encoder
    product_version : 8.2.0
    application_platform: win32
    product_uid     : 10ab07a9-e89e-7510-a923-ea9220524153
    modification_date: 2015-06-11 19:40:32
    material_package_umid: 0x060A2B340101010501010D11130000000DD3380484710583050500090FFE0001
    timecode        : 00:00:00;00
  Duration: 00:00:33.10, start: 0.000000, bitrate: 27980 kb/s
    Stream #0:0: Video: mpeg2video (Main), yuv420p(tv, unknown/bt709/bt709), 1920x1080 [SAR 1:1 DAR 16:9], max. 35000 kb/s, 29.97 fps, 29.97 tbr, 29.97 tbn, 59.94 tbc
    Metadata:
      file_package_umid: 0x060A2B340101010501010D1213D47D7E0BD3380484710583497800090FFE0001
      file_package_name: Source Package
    Stream #0:1: Audio: pcm_s16le, 48000 Hz, 1 channels, s16, 768 kb/s
    Metadata:
      file_package_umid: 0x060A2B340101010501010D1213D47D7E0BD3380484710583497800090FFE0001
      file_package_name: Source Package
    Stream #0:2: Audio: pcm_s16le, 48000 Hz, 1 channels, s16, 768 kb/s
    Metadata:
      file_package_umid: 0x060A2B340101010501010D1213D47D7E0BD3380484710583497800090FFE0001
      file_package_name: Source Package
